<svg width="44" height="45" viewBox="0 0 44 45" fill="none" xmlns="http://www.w3.org/2000/svg">
<path d="M23.8328 27.5417H21.9995C21.2478 27.5417 20.6245 26.9184 20.6245 26.1667C20.6245 25.4151 21.2478 24.7917 21.9995 24.7917H23.8328C25.0978 24.7917 26.1245 23.7651 26.1245 22.5001V5.54175H10.9995C8.83618 5.54175 6.85613 6.71505 5.79279 8.60338C5.42613 9.26338 4.58287 9.50179 3.92287 9.13512C3.26287 8.76846 3.02447 7.92509 3.39113 7.26509C4.93113 4.51509 7.84618 2.79175 10.9995 2.79175H27.4995C28.2512 2.79175 28.8745 3.41508 28.8745 4.16675V22.5001C28.8745 25.2867 26.6195 27.5417 23.8328 27.5417Z" fill="#0D6EFD"/>
<path d="M34.8334 38.5417H33.0001C32.2484 38.5417 31.6251 37.9184 31.6251 37.1667C31.6251 35.9018 30.5984 34.8751 29.3334 34.8751C28.0684 34.8751 27.0417 35.9018 27.0417 37.1667C27.0417 37.9184 26.4184 38.5417 25.6667 38.5417H18.3334C17.5817 38.5417 16.9584 37.9184 16.9584 37.1667C16.9584 35.9018 15.9317 34.8751 14.6667 34.8751C13.4017 34.8751 12.3751 35.9018 12.3751 37.1667C12.3751 37.9184 11.7517 38.5417 11.0001 38.5417H9.16675C5.37175 38.5417 2.29175 35.4618 2.29175 31.6667C2.29175 30.9151 2.91508 30.2917 3.66675 30.2917C4.41841 30.2917 5.04175 30.9151 5.04175 31.6667C5.04175 33.9401 6.89341 35.7917 9.16675 35.7917H9.80837C10.4134 33.6834 12.3567 32.1251 14.6667 32.1251C16.9767 32.1251 18.9201 33.6834 19.5251 35.7917H24.4934C25.0984 33.6834 27.0418 32.1251 29.3518 32.1251C31.6618 32.1251 33.605 33.6834 34.21 35.7917H34.8334C37.1067 35.7917 38.9584 33.9401 38.9584 31.6667V27.5417H34.8334C33.0734 27.5417 31.6251 26.0934 31.6251 24.3334V18.8334C31.6251 17.0734 33.0551 15.6251 34.8334 15.6251L32.8717 12.1968C32.4684 11.4818 31.6985 11.0417 30.8735 11.0417H28.8751V22.5001C28.8751 25.2867 26.6201 27.5417 23.8334 27.5417H22.0001C21.2484 27.5417 20.6251 26.9184 20.6251 26.1667C20.6251 25.4151 21.2484 24.7917 22.0001 24.7917H23.8334C25.0984 24.7917 26.1251 23.7651 26.1251 22.5001V9.66675C26.1251 8.91508 26.7484 8.29175 27.5001 8.29175H30.8735C32.6885 8.29175 34.3567 9.26344 35.255 10.8401L38.3901 16.3218C38.6284 16.7434 38.6284 17.2751 38.3901 17.6968C38.1518 18.1184 37.6934 18.3751 37.1984 18.3751H34.8334C34.5767 18.3751 34.3751 18.5767 34.3751 18.8334V24.3334C34.3751 24.5901 34.5767 24.7917 34.8334 24.7917H40.3334C41.0851 24.7917 41.7084 25.4151 41.7084 26.1667V31.6667C41.7084 35.4618 38.6284 38.5417 34.8334 38.5417Z" fill="#0D6EFD"/>
<path d="M14.6667 42.2083C11.88 42.2083 9.625 39.9533 9.625 37.1667C9.625 34.38 11.88 32.125 14.6667 32.125C17.4533 32.125 19.7083 34.38 19.7083 37.1667C19.7083 39.9533 17.4533 42.2083 14.6667 42.2083ZM14.6667 34.875C13.4017 34.875 12.375 35.9017 12.375 37.1667C12.375 38.4317 13.4017 39.4583 14.6667 39.4583C15.9317 39.4583 16.9583 38.4317 16.9583 37.1667C16.9583 35.9017 15.9317 34.875 14.6667 34.875Z" fill="#0D6EFD"/>
<path d="M29.3334 42.2083C26.5467 42.2083 24.2917 39.9533 24.2917 37.1667C24.2917 34.38 26.5467 32.125 29.3334 32.125C32.1201 32.125 34.3751 34.38 34.3751 37.1667C34.3751 39.9533 32.1201 42.2083 29.3334 42.2083ZM29.3334 34.875C28.0684 34.875 27.0417 35.9017 27.0417 37.1667C27.0417 38.4317 28.0684 39.4583 29.3334 39.4583C30.5984 39.4583 31.6251 38.4317 31.6251 37.1667C31.6251 35.9017 30.5984 34.875 29.3334 34.875Z" fill="#0D6EFD"/>
<path d="M40.3333 27.5417H34.8333C33.0733 27.5417 31.625 26.0933 31.625 24.3333V18.8333C31.625 17.0733 33.0733 15.625 34.8333 15.625H37.1983C37.6933 15.625 38.1517 15.8817 38.39 16.3217L41.525 21.8217C41.635 22.0233 41.7083 22.2617 41.7083 22.5V26.1667C41.7083 26.9183 41.085 27.5417 40.3333 27.5417ZM34.8333 18.375C34.5767 18.375 34.375 18.5767 34.375 18.8333V24.3333C34.375 24.59 34.5767 24.7917 34.8333 24.7917H38.9583V22.8667L36.3916 18.375H34.8333Z" fill="#0D6EFD"/>
<path d="M14.6667 16.5417H3.66675C2.91508 16.5417 2.29175 15.9184 2.29175 15.1667C2.29175 14.4151 2.91508 13.7917 3.66675 13.7917H14.6667C15.4184 13.7917 16.0417 14.4151 16.0417 15.1667C16.0417 15.9184 15.4184 16.5417 14.6667 16.5417Z" fill="#0D6EFD"/>
<path d="M11.0001 22.0417H3.66675C2.91508 22.0417 2.29175 21.4184 2.29175 20.6667C2.29175 19.9151 2.91508 19.2917 3.66675 19.2917H11.0001C11.7517 19.2917 12.3751 19.9151 12.3751 20.6667C12.3751 21.4184 11.7517 22.0417 11.0001 22.0417Z" fill="#0D6EFD"/>
<path d="M7.33341 27.5417H3.66675C2.91508 27.5417 2.29175 26.9184 2.29175 26.1667C2.29175 25.4151 2.91508 24.7917 3.66675 24.7917H7.33341C8.08508 24.7917 8.70841 25.4151 8.70841 26.1667C8.70841 26.9184 8.08508 27.5417 7.33341 27.5417Z" fill="#0D6EFD"/>
</svg>
