<svg width="44" height="45" viewBox="0 0 44 45" fill="none" xmlns="http://www.w3.org/2000/svg">
<path d="M22.0002 2.79011C32.8718 2.79011 41.7085 11.6268 41.7085 22.4985C41.7085 33.3701 32.8718 42.2068 22.0002 42.2068C11.1285 42.2068 2.29183 33.3701 2.29183 22.4984C2.29183 11.6268 11.1285 2.79011 22.0002 2.79011ZM22.0002 39.4568C31.3502 39.4568 38.9585 31.8485 38.9585 22.4985C38.9585 13.1484 31.3502 5.54011 22.0002 5.54011C12.6502 5.54011 5.04183 13.1484 5.04183 22.4984C5.04183 31.8484 12.6502 39.4568 22.0002 39.4568Z" fill="#0D6EFD"/>
<path d="M22 19.2901C22.7517 19.2901 23.375 19.9135 23.375 20.6651L23.375 29.8318C23.375 30.5835 22.7517 31.2068 22 31.2068C21.2483 31.2068 20.625 30.5835 20.625 29.8318L20.625 20.6651C20.625 19.9135 21.2483 19.2901 22 19.2901Z" fill="#0D6EFD"/>
<path d="M22.0002 13.3325C22.2385 13.3325 22.4768 13.3875 22.6968 13.4792C22.9168 13.5708 23.1185 13.6992 23.3018 13.8642C23.4668 14.0475 23.5952 14.2308 23.6868 14.4692C23.7785 14.6892 23.8335 14.9275 23.8335 15.1658C23.8335 15.4042 23.7785 15.6425 23.6868 15.8625C23.5952 16.0825 23.4668 16.2842 23.3018 16.4675C23.1185 16.6325 22.9168 16.7608 22.6968 16.8525C22.2568 17.0358 21.7435 17.0358 21.3035 16.8525C21.0835 16.7608 20.8818 16.6325 20.6985 16.4675C20.5335 16.2842 20.4052 16.0825 20.3135 15.8625C20.2218 15.6425 20.1668 15.4042 20.1668 15.1658C20.1668 14.9275 20.2218 14.6892 20.3135 14.4692C20.4052 14.2308 20.5335 14.0475 20.6985 13.8642C20.8818 13.6992 21.0835 13.5708 21.3035 13.4792C21.5235 13.3875 21.7618 13.3325 22.0002 13.3325Z" fill="#0D6EFD"/>
</svg>
