<svg width="44" height="45" viewBox="0 0 44 45" fill="none" xmlns="http://www.w3.org/2000/svg">
<path d="M29.1469 1.83325H14.7534C11.4962 1.83325 8.84546 4.48585 8.84546 7.74118V37.2587C8.84546 40.5158 11.4981 43.1666 14.7534 43.1666H29.1469C32.404 43.1666 35.0548 40.514 35.0548 37.2587V7.74118C35.0548 4.48403 32.4022 1.83325 29.1469 1.83325ZM33.0382 37.2642C33.0382 39.4127 31.2934 41.1555 29.1469 41.1555H14.7534C12.6049 41.1555 10.8621 39.4107 10.8621 37.2642V7.74118C10.8621 5.59272 12.6068 3.84988 14.7534 3.84988H15.0311C14.9444 4.00152 14.8893 4.16694 14.8893 4.35402C14.8893 4.90937 15.3422 5.36228 15.8975 5.36228H27.9967C28.5521 5.36228 29.005 4.90935 29.005 4.35402C29.005 4.16694 28.9498 4.00152 28.8632 3.84988H29.1409C31.2893 3.84988 33.0322 5.59464 33.0322 7.74118V37.2587L33.0382 37.2642Z" fill="#0D6EFD"/>
<path d="M26.4845 36.8704H17.4101C16.8548 36.8704 16.4019 37.3233 16.4019 37.8786C16.4019 38.434 16.8548 38.8869 17.4101 38.8869H26.4845C27.0399 38.8869 27.4928 38.434 27.4928 37.8786C27.4928 37.3233 27.0398 36.8704 26.4845 36.8704Z" fill="#0D6EFD"/>
</svg>
